grf
version=1
nRows=28
nColumns=46
inDegrees=yes
endheader
time	ground_force_1_vx	ground_force_1_vy	ground_force_1_vz	ground_force_1_px	ground_force_1_py	ground_force_1_pz	ground_moment_1_mx	ground_moment_1_my	ground_moment_1_mz	ground_force_2_vx	ground_force_2_vy	ground_force_2_vz	ground_force_2_px	ground_force_2_py	ground_force_2_pz	ground_moment_2_mx	ground_moment_2_my	ground_moment_2_mz	ground_force_3_vx	ground_force_3_vy	ground_force_3_vz	ground_force_3_px	ground_force_3_py	ground_force_3_pz	ground_moment_3_mx	ground_moment_3_my	ground_moment_3_mz	ground_force_4_vx	ground_force_4_vy	ground_force_4_vz	ground_force_4_px	ground_force_4_py	ground_force_4_pz	ground_moment_4_mx	ground_moment_4_my	ground_moment_4_mz	ground_force_5_vx	ground_force_5_vy	ground_force_5_vz	ground_force_5_px	ground_force_5_py	ground_force_5_pz	ground_moment_5_mx	ground_moment_5_my	ground_moment_5_mz
1.395000	0.000000	0.000000	0.000000	0.000000	0.000000	0.000000	0.000000	0.000000	0.000000	0.000000	0.000000	0.000000	0.000000	0.000000	0.000000	0.000000	0.000000	0.000000	0.000000	0.000000	0.000000	0.000000	0.000000	0.000000	0.000000	0.000000	0.000000	6.539638	444.618225	-54.593793	0.205709	0.000000	-1.038476	0.000000	3.234192	0.000000	-4.705336	448.749268	52.861877	0.234963	0.000000	-1.411593	0.000000	-3.024644	-0.000000
1.395500	0.000000	0.000000	0.000000	0.000000	0.000000	0.000000	0.000000	0.000000	0.000000	0.000000	0.000000	0.000000	0.000000	0.000000	0.000000	0.000000	0.000000	0.000000	0.000000	0.000000	0.000000	0.000000	0.000000	0.000000	0.000000	0.000000	0.000000	6.943789	444.297974	-54.511994	0.205831	0.000000	-1.038407	0.000000	3.242889	0.000000	-4.464025	449.388214	53.103020	0.234956	0.000000	-1.411907	0.000000	-3.074683	0.000000
1.396000	0.000000	0.000000	0.000000	0.000000	0.000000	0.000000	0.000000	0.000000	0.000000	0.000000	0.000000	0.000000	0.000000	0.000000	0.000000	0.000000	0.000000	0.000000	0.000000	0.000000	0.000000	0.000000	0.000000	0.000000	0.000000	0.000000	0.000000	7.347939	443.977753	-54.430200	0.205952	0.000000	-1.038338	0.000000	3.251541	0.000000	-4.222715	450.027161	53.344158	0.234949	0.000000	-1.412221	0.000000	-3.124569	-0.000000
1.396500	0.000000	0.000000	0.000000	0.000000	0.000000	0.000000	0.000000	0.000000	0.000000	0.000000	0.000000	0.000000	0.000000	0.000000	0.000000	0.000000	0.000000	0.000000	0.000000	0.000000	0.000000	0.000000	0.000000	0.000000	0.000000	0.000000	0.000000	7.268190	443.653992	-54.350442	0.206093	0.000000	-1.039160	0.000000	3.221393	0.000000	-4.303067	449.547852	53.183456	0.234978	0.000000	-1.411581	0.000000	-3.099532	-0.000000
1.397000	0.000000	0.000000	0.000000	0.000000	0.000000	0.000000	0.000000	0.000000	0.000000	0.000000	0.000000	0.000000	0.000000	0.000000	0.000000	0.000000	0.000000	0.000000	0.000000	0.000000	0.000000	0.000000	0.000000	0.000000	0.000000	0.000000	0.000000	7.188441	443.330261	-54.270684	0.206234	0.000000	-1.039984	0.000000	3.191134	0.000000	-4.383419	449.068512	53.022751	0.235007	0.000000	-1.410939	0.000000	-3.074393	-0.000000
1.397500	0.000000	0.000000	0.000000	0.000000	0.000000	0.000000	0.000000	0.000000	0.000000	0.000000	0.000000	0.000000	0.000000	0.000000	0.000000	0.000000	0.000000	0.000000	0.000000	0.000000	0.000000	0.000000	0.000000	0.000000	0.000000	0.000000	0.000000	7.431549	443.652496	-54.512506	0.206181	0.000000	-1.039623	0.000000	3.212365	0.000000	-4.544377	448.590820	52.781780	0.235153	0.000000	-1.411051	0.000000	-3.064521	-0.000000
1.398000	0.000000	0.000000	0.000000	0.000000	0.000000	0.000000	0.000000	0.000000	0.000000	0.000000	0.000000	0.000000	0.000000	0.000000	0.000000	0.000000	0.000000	0.000000	0.000000	0.000000	0.000000	0.000000	0.000000	0.000000	0.000000	0.000000	0.000000	7.674658	443.974731	-54.754331	0.206127	0.000000	-1.039262	0.000000	3.233446	0.000000	-4.705336	448.113159	52.540810	0.235299	0.000000	-1.411164	0.000000	-3.054741	0.000000
1.398500	0.000000	0.000000	0.000000	0.000000	0.000000	0.000000	0.000000	0.000000	0.000000	0.000000	0.000000	0.000000	0.000000	0.000000	0.000000	0.000000	0.000000	0.000000	0.000000	0.000000	0.000000	0.000000	0.000000	0.000000	0.000000	0.000000	0.000000	7.107148	443.975555	-55.156686	0.205916	0.000000	-1.039459	0.000000	3.215933	0.000000	-4.463771	448.751404	52.620907	0.235233	0.000000	-1.411788	0.000000	-3.044206	-0.000000
1.399000	0.000000	0.000000	0.000000	0.000000	0.000000	0.000000	0.000000	0.000000	0.000000	0.000000	0.000000	0.000000	0.000000	0.000000	0.000000	0.000000	0.000000	0.000000	0.000000	0.000000	0.000000	0.000000	0.000000	0.000000	0.000000	0.000000	0.000000	6.539638	443.976379	-55.559037	0.205705	0.000000	-1.039656	0.000000	3.198367	0.000000	-4.222206	449.389679	52.701004	0.235167	0.000000	-1.412411	0.000000	-3.033362	0.000000
1.399500	0.000000	0.000000	0.000000	0.000000	0.000000	0.000000	0.000000	0.000000	0.000000	0.000000	0.000000	0.000000	0.000000	0.000000	0.000000	0.000000	0.000000	0.000000	0.000000	0.000000	0.000000	0.000000	0.000000	0.000000	0.000000	0.000000	0.000000	7.106375	444.617371	-55.397996	0.205837	0.000000	-1.038862	0.000000	3.237320	0.000000	-4.464025	447.792419	52.781780	0.235047	0.000000	-1.411314	0.000000	-3.097706	0.000000
1.400000	0.000000	0.000000	0.000000	0.000000	0.000000	0.000000	0.000000	0.000000	0.000000	0.000000	0.000000	0.000000	0.000000	0.000000	0.000000	0.000000	0.000000	0.000000	0.000000	0.000000	0.000000	0.000000	0.000000	0.000000	0.000000	0.000000	0.000000	7.673113	445.258331	-55.236951	0.205970	0.000000	-1.038070	0.000000	3.275455	0.000000	-4.705845	446.195190	52.862556	0.234926	0.000000	-1.410209	0.000000	-3.161549	-0.000000
1.400500	0.000000	0.000000	0.000000	0.000000	0.000000	0.000000	0.000000	0.000000	0.000000	0.000000	0.000000	0.000000	0.000000	0.000000	0.000000	0.000000	0.000000	0.000000	0.000000	0.000000	0.000000	0.000000	0.000000	0.000000	0.000000	0.000000	0.000000	7.754407	445.416626	-55.156686	0.205930	0.000000	-1.038682	0.000000	3.285830	0.000000	-4.222716	447.152344	52.942482	0.234953	0.000000	-1.411092	0.000000	-3.143237	-0.000000
1.401000	0.000000	0.000000	0.000000	0.000000	0.000000	0.000000	0.000000	0.000000	0.000000	0.000000	0.000000	0.000000	0.000000	0.000000	0.000000	0.000000	0.000000	0.000000	0.000000	0.000000	0.000000	0.000000	0.000000	0.000000	0.000000	0.000000	0.000000	7.835700	445.574890	-55.076417	0.205891	0.000000	-1.039294	0.000000	3.296293	0.000000	-3.739588	448.109497	53.022411	0.234979	0.000000	-1.411971	0.000000	-3.124060	-0.000000
1.401500	0.000000	0.000000	0.000000	0.000000	0.000000	0.000000	0.000000	0.000000	0.000000	0.000000	0.000000	0.000000	0.000000	0.000000	0.000000	0.000000	0.000000	0.000000	0.000000	0.000000	0.000000	0.000000	0.000000	0.000000	0.000000	0.000000	0.000000	7.270507	444.773468	-54.996148	0.206040	0.000000	-1.039140	0.000000	3.181647	0.000000	-4.383165	448.429382	53.344154	0.235062	0.000000	-1.411005	0.000000	-3.028354	-0.000000
1.402000	0.000000	0.000000	0.000000	0.000000	0.000000	0.000000	0.000000	0.000000	0.000000	0.000000	0.000000	0.000000	0.000000	0.000000	0.000000	0.000000	0.000000	0.000000	0.000000	0.000000	0.000000	0.000000	0.000000	0.000000	0.000000	0.000000	0.000000	6.705313	443.972046	-54.915883	0.206190	0.000000	-1.038986	0.000000	3.067165	0.000000	-5.026743	448.749298	53.665901	0.235145	0.000000	-1.410039	0.000000	-2.931364	-0.000000
1.402500	0.000000	0.000000	0.000000	0.000000	0.000000	0.000000	0.000000	0.000000	0.000000	0.000000	0.000000	0.000000	0.000000	0.000000	0.000000	0.000000	0.000000	0.000000	0.000000	0.000000	0.000000	0.000000	0.000000	0.000000	0.000000	0.000000	0.000000	7.027399	443.654663	-54.996659	0.205915	0.000000	-1.039236	0.000000	3.195945	0.000000	-4.946646	449.067993	53.504860	0.235016	0.000000	-1.410737	0.000000	-2.967484	-0.000000
1.403000	0.000000	0.000000	0.000000	0.000000	0.000000	0.000000	0.000000	0.000000	0.000000	0.000000	0.000000	0.000000	0.000000	0.000000	0.000000	0.000000	0.000000	0.000000	0.000000	0.000000	0.000000	0.000000	0.000000	0.000000	0.000000	0.000000	0.000000	7.349484	443.337280	-55.077439	0.205641	0.000000	-1.039487	0.000000	3.324955	0.000000	-4.866549	449.386719	53.343819	0.234887	0.000000	-1.411433	0.000000	-3.003437	-0.000000
1.403500	0.000000	0.000000	0.000000	0.000000	0.000000	0.000000	0.000000	0.000000	0.000000	0.000000	0.000000	0.000000	0.000000	0.000000	0.000000	0.000000	0.000000	0.000000	0.000000	0.000000	0.000000	0.000000	0.000000	0.000000	0.000000	0.000000	0.000000	7.105603	443.175812	-54.997171	0.205810	0.000000	-1.039596	0.000000	3.346144	0.000000	-4.544377	448.749756	52.861710	0.234989	0.000000	-1.411742	0.000000	-3.025317	0.000000
1.404000	0.000000	0.000000	0.000000	0.000000	0.000000	0.000000	0.000000	0.000000	0.000000	0.000000	0.000000	0.000000	0.000000	0.000000	0.000000	0.000000	0.000000	0.000000	0.000000	0.000000	0.000000	0.000000	0.000000	0.000000	0.000000	0.000000	0.000000	6.861723	443.014343	-54.916902	0.205979	0.000000	-1.039704	0.000000	3.367301	0.000000	-4.222206	448.112823	52.379601	0.235092	0.000000	-1.412052	0.000000	-3.047086	-0.000000
1.404500	0.000000	0.000000	0.000000	0.000000	0.000000	0.000000	0.000000	0.000000	0.000000	0.000000	0.000000	0.000000	0.000000	0.000000	0.000000	0.000000	0.000000	0.000000	0.000000	0.000000	0.000000	0.000000	0.000000	0.000000	0.000000	0.000000	0.000000	7.106375	443.815765	-55.239503	0.205806	0.000000	-1.039146	0.000000	3.338541	0.000000	-4.464279	447.952881	52.941635	0.235020	0.000000	-1.411713	0.000000	-3.031084	-0.000000
1.405000	0.000000	0.000000	0.000000	0.000000	0.000000	0.000000	0.000000	0.000000	0.000000	0.000000	0.000000	0.000000	0.000000	0.000000	0.000000	0.000000	0.000000	0.000000	0.000000	0.000000	0.000000	0.000000	0.000000	0.000000	0.000000	0.000000	0.000000	7.351028	444.617188	-55.562101	0.205634	0.000000	-1.038589	0.000000	3.309600	0.000000	-4.706352	447.792938	53.503674	0.234948	0.000000	-1.411373	0.000000	-3.015000	0.000000
1.405500	0.000000	0.000000	0.000000	0.000000	0.000000	0.000000	0.000000	0.000000	0.000000	0.000000	0.000000	0.000000	0.000000	0.000000	0.000000	0.000000	0.000000	0.000000	0.000000	0.000000	0.000000	0.000000	0.000000	0.000000	0.000000	0.000000	0.000000	6.865584	445.098206	-55.561082	0.205613	0.000000	-1.039117	0.000000	3.218669	0.000000	-4.625237	448.431549	53.182945	0.235173	0.000000	-1.411918	0.000000	-3.023777	-0.000000
1.406000	0.000000	0.000000	0.000000	0.000000	0.000000	0.000000	0.000000	0.000000	0.000000	0.000000	0.000000	0.000000	0.000000	0.000000	0.000000	0.000000	0.000000	0.000000	0.000000	0.000000	0.000000	0.000000	0.000000	0.000000	0.000000	0.000000	0.000000	6.380139	445.579224	-55.560060	0.205591	0.000000	-1.039644	0.000000	3.127215	0.000000	-4.544123	449.070160	52.862217	0.235398	0.000000	-1.412461	0.000000	-3.032636	0.000000
1.406500	0.000000	0.000000	0.000000	0.000000	0.000000	0.000000	0.000000	0.000000	0.000000	0.000000	0.000000	0.000000	0.000000	0.000000	0.000000	0.000000	0.000000	0.000000	0.000000	0.000000	0.000000	0.000000	0.000000	0.000000	0.000000	0.000000	0.000000	6.703769	445.738159	-55.076928	0.205741	0.000000	-1.039174	0.000000	3.156750	0.000000	-4.705589	448.271790	52.861877	0.235143	0.000000	-1.411977	-0.000000	-3.049120	-0.000000
1.407000	0.000000	0.000000	0.000000	0.000000	0.000000	0.000000	0.000000	0.000000	0.000000	0.000000	0.000000	0.000000	0.000000	0.000000	0.000000	0.000000	0.000000	0.000000	0.000000	0.000000	0.000000	0.000000	0.000000	0.000000	0.000000	0.000000	0.000000	7.027399	445.897095	-54.593793	0.205891	0.000000	-1.038704	0.000000	3.186134	0.000000	-4.867056	447.473389	52.861538	0.234887	0.000000	-1.411490	0.000000	-3.065486	-0.000000
1.407500	0.000000	0.000000	0.000000	0.000000	0.000000	0.000000	0.000000	0.000000	0.000000	0.000000	0.000000	0.000000	0.000000	0.000000	0.000000	0.000000	0.000000	0.000000	0.000000	0.000000	0.000000	0.000000	0.000000	0.000000	0.000000	0.000000	0.000000	6.702225	446.697998	-54.755349	0.205579	0.000000	-1.038871	0.000000	3.249180	0.000000	-4.786704	448.111816	53.102676	0.235011	0.000000	-1.411669	0.000000	-3.087408	-0.000000
1.408000	0.000000	0.000000	0.000000	0.000000	0.000000	0.000000	0.000000	0.000000	0.000000	0.000000	0.000000	0.000000	0.000000	0.000000	0.000000	0.000000	0.000000	0.000000	0.000000	0.000000	0.000000	0.000000	0.000000	0.000000	0.000000	0.000000	0.000000	6.377051	447.498901	-54.916902	0.205269	0.000000	-1.039037	0.000000	3.312154	0.000000	-4.706352	448.750244	53.343819	0.235135	0.000000	-1.411847	0.000000	-3.109257	-0.000000
1.408500	0.000000	0.000000	0.000000	0.000000	0.000000	0.000000	0.000000	0.000000	0.000000	0.000000	0.000000	0.000000	0.000000	0.000000	0.000000	0.000000	0.000000	0.000000	0.000000	0.000000	0.000000	0.000000	0.000000	0.000000	0.000000	0.000000	0.000000	6.946105	446.218994	-54.916391	0.205337	0.000000	-1.039249	0.000000	3.244450	0.000000	-4.625492	448.271576	53.183113	0.235208	0.000000	-1.411650	0.000000	-3.072132	-0.000000
